  <svg id="logo" width="90" height="47" viewBox="0 0 167 47" fill="none" xmlns="http://www.w3.org/2000/svg">
                <path
                    d="M14.0771 21.8897C14.0011 22.078 13.824 22.3144 13.5458 22.5987C13.3142 22.8512 12.9663 23.1832 12.502 23.5946C12.0532 23.9901 11.418 24.4893 10.5964 25.0921C10.6091 24.8264 10.5677 24.608 10.4721 24.4372C10.3919 24.2506 10.2888 24.1111 10.1628 24.0187C10.0209 23.9109 9.86384 23.8345 9.69146 23.7895C8.68947 23.613 7.90045 23.6216 7.32442 23.8155C7.18449 23.8795 7.07683 24.0369 7.00146 24.2878C6.94153 24.5228 6.91354 24.82 6.91748 25.1794C6.92691 26.0387 7.09164 26.8104 7.41167 27.4944C7.74714 28.1626 8.16031 28.791 8.65117 29.3794C9.14186 29.9521 9.67135 30.501 10.2396 31.0261C10.8079 31.5511 11.3374 32.0922 11.8279 32.6494C12.3182 33.1909 12.723 33.7646 13.0421 34.3705C13.3769 34.9763 13.5484 35.6463 13.5564 36.3806C13.5633 37.0056 13.4376 37.6555 13.1793 38.3302C12.9366 38.9892 12.5526 39.595 12.0273 40.1476C11.5794 40.6213 11.0925 41.1111 10.5668 41.6169C10.0567 42.1225 9.52291 42.605 8.96541 43.0642C8.42354 43.5233 7.86562 43.9435 7.29164 44.3249C6.71767 44.7062 6.15073 45.0171 5.59084 45.2576C4.64154 45.6118 3.72942 45.7937 2.85448 45.8033C2.26076 45.8098 1.74422 45.7296 1.30486 45.5625C0.865505 45.3954 0.596981 45.1327 0.499293 44.7744C0.418087 44.494 0.500248 44.1494 0.745775 43.7404C0.991131 43.3158 1.29907 42.8983 1.66959 42.488C2.03994 42.062 2.42625 41.6672 2.82853 41.3033C3.24627 40.9237 3.5712 40.6311 3.80333 40.4254C3.78032 41.1757 3.9581 41.7128 4.33667 42.0368C4.7307 42.345 5.34983 42.5179 6.19404 42.5556C6.61623 42.5822 7.06126 42.5538 7.52912 42.4706C7.99682 42.3717 8.42502 42.2342 8.81374 42.058C9.21791 41.8661 9.54344 41.6281 9.79034 41.3441C10.0529 41.06 10.1743 40.7305 10.1545 40.3557C10.1137 39.4811 9.91743 38.6863 9.56582 37.9714C9.22965 37.2407 8.80807 36.5578 8.30107 35.9227C7.80953 35.2718 7.27918 34.6447 6.71002 34.0416C6.15632 33.4226 5.63379 32.7955 5.14241 32.1602C4.66666 31.5248 4.26079 30.8495 3.9248 30.1344C3.60443 29.4191 3.43962 28.6396 3.43036 27.7959C3.42642 27.4366 3.4617 27.0924 3.53622 26.7635C3.61074 26.4345 3.74793 26.1205 3.94779 25.8214C4.30131 25.2862 4.78738 24.7262 5.406 24.1412C6.02462 23.5563 6.68281 23.0178 7.38058 22.5257C8.07835 22.0336 8.76916 21.6198 9.45302 21.2841C10.1367 20.9329 10.7282 20.7232 11.2275 20.6553C11.7111 20.5874 12.1408 20.5827 12.5165 20.6411C12.9076 20.6837 13.2288 20.7661 13.4802 20.8884C13.7315 21.0106 13.9051 21.165 14.0009 21.3514C14.1122 21.5221 14.1376 21.7015 14.0771 21.8897Z"
                    fill="#FC8501" />
                <path
                    d="M35.6762 42.2789L31.8234 45.7433C32.0849 42.5215 32.2897 39.8237 32.4377 37.6501C32.5858 35.4765 32.6995 33.7329 32.7788 32.4195C32.8712 30.8715 32.9282 29.6599 32.9499 28.7846C33.0012 27.7683 32.961 26.9484 32.8291 26.3248C32.6971 25.6856 32.4964 25.1956 32.227 24.8548C31.9731 24.4982 31.6736 24.2592 31.3285 24.138C30.999 24.0166 30.6702 23.9577 30.3421 23.9613C29.9984 23.9651 29.6866 24.031 29.4067 24.1591C29.1425 24.287 28.8868 24.4852 28.6397 24.7535C28.3925 25.0062 28.146 25.3293 27.9003 25.7226C27.6545 26.1003 27.3937 26.5485 27.1182 27.0672C26.8888 27.5229 26.6374 28.1116 26.3641 28.8334C26.1364 29.4453 25.8715 30.2295 25.5695 31.186C25.2675 32.1425 24.9443 33.3102 24.6001 34.6891L24.6047 35.1109C24.5817 35.8612 24.5436 36.6585 24.4903 37.5029C24.4513 38.2221 24.4056 39.0352 24.353 39.9421C24.3005 40.849 24.2403 41.7716 24.1724 42.7099L20.5053 46.0081C20.6355 42.2096 20.7495 39.0753 20.8474 36.6053C20.9608 34.1196 21.0487 32.1576 21.111 30.7193C21.1862 29.0309 21.2502 27.741 21.3029 26.8498C21.3383 25.8024 21.1896 25.0618 20.8566 24.628C20.5237 24.1941 20.1151 23.9798 19.6308 23.9851C19.2558 23.9892 18.8509 24.1109 18.416 24.35C17.9967 24.589 17.5937 24.8903 17.207 25.254C17.5928 24.8122 18.0174 24.3388 18.4806 23.8337C18.9595 23.3284 19.4622 22.8619 19.9888 22.4342C20.5154 22.0065 21.0505 21.6491 21.5943 21.3619C22.1537 21.0745 22.7068 20.9277 23.2536 20.9217C23.5974 20.918 23.8874 21.0085 24.1238 21.1935C24.3757 21.3626 24.5664 21.6496 24.6958 22.0544C24.8083 22.3345 24.8831 22.7477 24.9204 23.2942C24.9576 23.8407 24.9801 24.4655 24.9878 25.1686C24.9928 25.6217 24.9903 26.1061 24.9803 26.6219C24.9704 27.1377 24.9527 27.6613 24.9273 28.1929C25.2494 27.6424 25.5642 27.139 25.8717 26.6824C26.1792 26.2259 26.4562 25.84 26.7028 25.5248C26.9799 25.1467 27.2496 24.8078 27.512 24.5081C28.1452 23.8292 28.8025 23.2126 29.484 22.6582C30.1809 22.088 30.8557 21.6353 31.5083 21.2999C32.1763 20.9488 32.8068 20.731 33.3996 20.6463C33.9925 20.5617 34.517 20.6575 34.9732 20.9338C35.2877 21.1178 35.5558 21.3337 35.7772 21.5812C35.9987 21.8288 36.1738 22.1238 36.3026 22.4662C36.447 22.8083 36.5531 23.2213 36.6209 23.7049C36.6885 24.173 36.7259 24.7273 36.7329 25.3679C36.7382 25.8522 36.7435 26.3366 36.7489 26.8209C36.754 27.2896 36.7436 27.7663 36.7177 28.251C37.0714 27.7315 37.4021 27.2513 37.7097 26.8104C38.033 26.3693 38.3257 25.9832 38.5877 25.6522C38.8803 25.2584 39.1576 24.9037 39.4198 24.5883C40.0062 23.91 40.609 23.3096 41.2283 22.7871C41.8632 22.2645 42.4757 21.8359 43.0659 21.5013C43.6716 21.1665 44.2316 20.9338 44.7458 20.8031C45.2599 20.6568 45.6971 20.6286 46.0575 20.7184C46.7938 20.8978 47.292 21.4393 47.5519 22.3427C47.8273 23.2304 47.9734 24.4398 47.9902 25.9709C48.0031 27.1427 47.9766 28.2915 47.9108 29.4173C47.845 30.5431 47.7713 31.6534 47.6895 32.7481C47.6233 33.827 47.557 34.9059 47.4907 35.9848C47.4242 37.0481 47.3968 38.111 47.4085 39.1734C47.4165 39.9078 47.4776 40.4931 47.5918 40.9293C47.7214 41.3498 47.9585 41.5972 48.3031 41.6716C48.6472 41.6991 49.029 41.6011 49.4484 41.3777C49.8057 41.1863 50.2318 40.8613 50.7268 40.4027C51.2217 39.9285 51.7609 39.2272 52.3445 38.2989L52.1729 39.754C51.7562 40.2274 51.2702 40.7952 50.715 41.4576C50.1753 42.1198 49.6041 42.7511 49.0013 43.3515C48.4139 43.9361 47.8099 44.4272 47.1892 44.8246C46.5842 45.2219 46.0079 45.3923 45.4603 45.3358C44.8658 45.2642 44.3777 44.9336 43.9962 44.344C43.6146 43.7388 43.4166 42.7878 43.4024 41.491C43.388 40.1785 43.4206 38.8812 43.5003 37.599C43.5955 36.301 43.683 35.0187 43.7628 33.7522C43.8581 32.4698 43.9379 31.1954 44.0021 29.929C44.0662 28.647 44.0679 27.3734 44.0071 26.1084C43.9676 25.3588 43.7664 24.8219 43.4034 24.4977C43.0561 24.1734 42.6559 24.0137 42.2028 24.0187C41.6091 24.0252 41.0647 24.2578 40.5697 24.7163C40.338 24.9533 40.0605 25.3001 39.7374 25.7568C39.4141 26.1979 39.0689 26.7798 38.7018 27.5026C38.3503 28.2253 37.977 29.0966 37.5819 30.1166C37.2023 31.1209 36.8246 32.297 36.4487 33.6449C36.3398 35.115 36.2074 36.5696 36.0513 38.0089C35.9106 39.4324 35.7856 40.8558 35.6762 42.2789Z"
                    fill="#FC8501" />
                <path
                    d="M71.1771 26.5837C71.2373 27.8019 71.2114 28.9976 71.0992 30.1708C70.9871 31.3439 70.8117 32.4475 70.573 33.4814C70.3498 34.4995 70.0632 35.4324 69.7131 36.2801C69.3784 37.1119 69.0109 37.7957 68.6105 38.3314C68.3488 38.6936 67.9785 39.1196 67.4995 39.6093C67.0359 40.0831 66.5101 40.5811 65.922 41.1032C65.3338 41.6097 64.7065 42.1166 64.0401 42.624C63.3738 43.1313 62.7147 43.5839 62.0627 43.9817C61.4106 44.3639 60.7812 44.6755 60.1744 44.9165C59.5835 45.173 59.0614 45.3037 58.6083 45.3087C58.0771 45.3145 57.6147 45.179 57.221 44.902C56.8275 44.6407 56.4877 44.2929 56.2017 43.8585C55.9155 43.4085 55.6756 42.9111 55.4821 42.3663C55.2885 41.8059 55.1339 41.2528 55.0186 40.7072C54.903 40.1459 54.8191 39.6156 54.7667 39.1161C54.7298 38.6009 54.7094 38.1636 54.7054 37.8042C54.6904 36.4293 54.8004 35.0686 55.0357 33.7222C55.2707 32.3602 55.6394 31.067 56.1416 29.8427C56.6595 28.6182 57.3111 27.4859 58.0966 26.446C58.882 25.3905 59.8252 24.4816 60.9263 23.7195C61.6397 23.2273 62.2833 22.7827 62.8571 22.3857C63.4307 21.9732 63.9582 21.6314 64.4397 21.3605C64.9211 21.0896 65.3563 20.8816 65.7454 20.7367C66.1499 20.576 66.5318 20.4937 66.8912 20.4898C67.2349 20.486 67.6344 20.5754 68.0895 20.7579C68.5603 20.9402 69.0092 21.2635 69.4362 21.7276C69.8786 22.1759 70.2605 22.7967 70.5817 23.5901C70.9027 24.3679 71.1012 25.3658 71.1771 26.5837ZM67.5169 30.5148C67.5097 29.8586 67.4546 29.1091 67.3516 28.2664C67.2486 27.4238 67.0524 26.6368 66.7631 25.9056C66.4738 25.1743 66.0686 24.5616 65.5476 24.0672C65.0419 23.5571 64.3673 23.3067 63.5236 23.316C63.1798 23.3197 62.8213 23.4018 62.4481 23.5622C62.0903 23.7067 61.7568 23.9369 61.4478 24.2529C60.8297 24.8847 60.3298 25.609 59.9481 26.4257C59.5819 27.2266 59.2943 28.0736 59.0853 28.9666C58.8763 29.8595 58.7378 30.7595 58.6696 31.6666C58.6014 32.5737 58.5718 33.4334 58.5807 34.2459C58.5853 34.6677 58.5985 35.1598 58.6203 35.7221C58.642 36.2687 58.6951 36.8385 58.7797 37.4314C58.8642 38.0086 58.9799 38.5855 59.1269 39.162C59.2894 39.7384 59.4982 40.2518 59.7532 40.7021C60.0236 41.1367 60.3556 41.4924 60.7493 41.7694C61.143 42.0463 61.6211 42.1817 62.1836 42.1756C62.9335 42.1673 63.5874 41.9492 64.1452 41.5212C64.7029 41.0775 65.1811 40.5097 65.5798 39.8178C65.9784 39.1259 66.2981 38.3489 66.5386 37.4869C66.7948 36.6246 66.9963 35.763 67.1431 34.9019C67.2899 34.0409 67.3904 33.2273 67.4445 32.461C67.4984 31.6791 67.5225 31.0304 67.5169 30.5148Z"
                    fill="#FC8501" />
                <path
                    d="M91.9171 26.3562C91.9773 27.5743 91.9514 28.77 91.8392 29.9432C91.7271 31.1163 91.5517 32.2199 91.313 33.2538C91.0898 34.272 90.8032 35.2049 90.4531 36.0525C90.1184 36.8843 89.7509 37.5681 89.3505 38.1038C89.0888 38.466 88.7185 38.892 88.2395 39.3817C87.7759 39.8555 87.2501 40.3535 86.662 40.8756C86.0738 41.3821 85.4465 41.889 84.7801 42.3964C84.1138 42.9037 83.4547 43.3563 82.8027 43.7541C82.1506 44.1363 81.5212 44.4479 80.9144 44.6889C80.3235 44.9454 79.8014 45.0762 79.3483 45.0811C78.8171 45.087 78.3547 44.9514 77.961 44.6745C77.5675 44.4131 77.2277 44.0653 76.9417 43.6309C76.6555 43.1809 76.4156 42.6835 76.2221 42.1387C76.0285 41.5783 75.8739 41.0253 75.7586 40.4796C75.643 39.9184 75.5591 39.388 75.5067 38.8885C75.4698 38.3733 75.4494 37.936 75.4454 37.5766C75.4304 36.2017 75.5404 34.8411 75.7757 33.4946C76.0107 32.1326 76.3794 30.8394 76.8816 29.6151C77.3995 28.3906 78.0511 27.2584 78.8366 26.2184C79.622 25.1629 80.5652 24.254 81.6663 23.4919C82.3797 22.9997 83.0233 22.5551 83.5971 22.1581C84.1707 21.7456 84.6982 21.4038 85.1797 21.1329C85.6611 20.862 86.0963 20.6541 86.4854 20.5092C86.8899 20.3485 87.2718 20.2661 87.6312 20.2622C87.9749 20.2584 88.3744 20.3478 88.8295 20.5303C89.3003 20.7127 89.7492 21.0359 90.1762 21.5C90.6186 21.9483 91.0005 22.5691 91.3217 23.3625C91.6427 24.1403 91.8412 25.1382 91.9171 26.3562ZM88.2569 30.2872C88.2497 29.631 88.1946 28.8815 88.0916 28.0389C87.9886 27.1962 87.7924 26.4092 87.5031 25.678C87.2138 24.9467 86.8086 24.334 86.2876 23.8397C85.7819 23.3295 85.1073 23.0791 84.2636 23.0884C83.9198 23.0922 83.5613 23.1742 83.1881 23.3346C82.8303 23.4791 82.4968 23.7094 82.1878 24.0253C81.5697 24.6571 81.0698 25.3814 80.6881 26.1981C80.3219 26.9991 80.0343 27.846 79.8253 28.739C79.6163 29.632 79.4778 30.532 79.4096 31.439C79.3414 32.3461 79.3118 33.2058 79.3207 34.0183C79.3253 34.4401 79.3385 34.9322 79.3603 35.4945C79.382 36.0412 79.4351 36.6109 79.5197 37.2038C79.6042 37.781 79.7199 38.3579 79.8669 38.9345C80.0294 39.5108 80.2382 40.0242 80.4932 40.4745C80.7636 40.9091 81.0956 41.2649 81.4893 41.5418C81.883 41.8188 82.3611 41.9541 82.9236 41.948C83.6735 41.9397 84.3274 41.7216 84.8852 41.2936C85.4429 40.8499 85.9211 40.2822 86.3198 39.5902C86.7184 38.8983 87.0381 38.1213 87.2786 37.2593C87.5348 36.397 87.7363 35.5354 87.8831 34.6744C88.0299 33.8133 88.1304 32.9997 88.1845 32.2334C88.2384 31.4515 88.2625 30.8028 88.2569 30.2872Z"
                    fill="#FC8501" />
                <path
                    d="M110.379 36.4198L109.914 38.8391C109.557 39.1399 109.14 39.5195 108.66 39.9779C108.196 40.4206 107.686 40.8871 107.129 41.3777C106.587 41.868 106.022 42.3508 105.434 42.826C104.845 43.2856 104.255 43.6828 103.665 44.0174C103.075 44.3364 102.492 44.5615 101.915 44.6929C101.354 44.8397 100.83 44.822 100.344 44.6398C100.03 44.5339 99.7549 44.3728 99.5182 44.1566C99.297 43.9403 99.1061 43.6299 98.9454 43.2254C98.8003 42.8207 98.6853 42.3063 98.6003 41.6822C98.5152 41.0425 98.4675 40.2617 98.4574 39.3399C98.4269 36.5588 98.452 33.863 98.5328 31.2526C98.6289 28.6264 98.7488 26.0234 98.8924 23.4435C98.2367 23.4976 97.5893 23.5906 96.95 23.7227C96.3263 23.8389 95.844 24.0317 95.5032 24.3011C96.4779 23.4153 97.2425 22.6022 97.7969 21.8617C98.3511 21.1056 98.7735 20.4368 99.064 19.8555L99.2982 15.5636L103.292 12.168L102.892 20.5635C103.236 20.591 103.557 20.6031 103.854 20.5998C104.151 20.5966 104.44 20.5934 104.721 20.5903C106.08 20.5754 107.337 20.4444 108.49 20.1974C109.659 19.9345 110.781 19.5941 111.854 19.176C110.863 19.9838 109.909 20.6428 108.993 21.1529C108.092 21.6628 107.253 22.0783 106.475 22.3993C105.697 22.7047 104.989 22.9313 104.35 23.0789C103.71 23.2109 103.172 23.3028 102.735 23.3545C102.61 26.1685 102.51 28.451 102.436 30.2019C102.376 31.937 102.329 33.2814 102.292 34.235C102.242 35.3606 102.22 36.1812 102.226 36.6968C102.187 37.4629 102.241 38.142 102.389 38.7342C102.536 39.3264 102.752 39.8162 103.037 40.2037C103.339 40.5911 103.693 40.8606 104.101 41.0124C104.525 41.164 104.986 41.1746 105.484 41.0441C105.874 40.9148 106.324 40.6599 106.835 40.2792C107.269 39.962 107.78 39.5032 108.367 38.903C108.97 38.2869 109.641 37.4592 110.379 36.4198ZM95.5032 24.3011L95.3636 24.3963L95.5032 24.3011Z"
                    fill="#FC8501" />
                <path
                    d="M119.039 3.34623C119.074 3.64275 119.094 4.03318 119.099 4.51752C119.104 5.00187 119.111 5.57215 119.118 6.22836C119.158 9.85314 119.111 13.4007 118.977 16.8712C118.858 20.3258 118.693 23.7731 118.481 27.2132C119.049 26.3006 119.68 25.3718 120.372 24.4266C121.081 23.4813 121.829 22.6293 122.618 21.8706C123.406 21.0963 124.228 20.47 125.082 19.9919C125.936 19.4981 126.808 19.2463 127.699 19.2366C128.433 19.2285 129.044 19.4093 129.533 19.779C130.021 20.1486 130.409 20.6131 130.697 21.1725C130.984 21.7319 131.186 22.3391 131.303 22.9941C131.435 23.6489 131.504 24.2576 131.51 24.8201C131.523 26.0075 131.489 27.1876 131.408 28.3605C131.327 29.5177 131.238 30.6671 131.141 31.8089C131.06 32.9505 130.979 34.0921 130.898 35.2337C130.816 36.3596 130.782 37.4851 130.794 38.61C130.798 38.9225 130.817 39.2348 130.851 39.5469C130.886 39.8591 130.96 40.1473 131.072 40.4118C131.184 40.6605 131.335 40.8698 131.524 41.0396C131.729 41.1937 131.995 41.2689 132.323 41.2653C132.761 41.2605 133.204 41.0759 133.653 40.7116C134.118 40.3314 134.543 39.8971 134.928 39.4084C135.329 38.904 135.683 38.4079 135.99 37.9201C136.313 37.4166 136.558 37.031 136.727 36.7635L136.235 38.9253C135.555 39.6047 134.991 40.1578 134.543 40.5846C134.11 40.9956 133.762 41.3276 133.499 41.5805C133.189 41.8652 132.942 42.0788 132.756 42.2215C132.57 42.3798 132.338 42.5933 132.06 42.862C131.781 43.1307 131.472 43.3919 131.131 43.6457C130.805 43.8993 130.456 44.114 130.083 44.29C129.726 44.4815 129.36 44.5792 128.985 44.5833C128.672 44.5868 128.414 44.5427 128.21 44.4512C128.006 44.3597 127.84 44.1974 127.712 43.9645C127.585 43.7315 127.487 43.4278 127.421 43.0535C127.37 42.6634 127.341 42.1715 127.334 41.5778C127.318 40.1092 127.342 38.6791 127.404 37.2877C127.483 35.8805 127.561 34.4968 127.64 33.1365C127.719 31.7761 127.782 30.4316 127.83 29.1029C127.878 27.7742 127.872 26.4538 127.81 25.1419C127.775 24.7673 127.677 24.4168 127.517 24.0904C127.357 23.7484 127.135 23.4539 126.852 23.207C126.583 22.96 126.261 22.776 125.884 22.6551C125.508 22.5186 125.101 22.4762 124.664 22.5279C124.227 22.5795 123.799 22.7092 123.379 22.917C122.975 23.1245 122.572 23.4337 122.171 23.8444C121.785 24.2549 121.392 24.7826 120.993 25.4277C120.609 26.0726 120.219 26.8738 119.824 27.8313C119.656 28.255 119.482 28.7257 119.3 29.2434C119.133 29.6984 118.952 30.2316 118.755 30.8432C118.559 31.4391 118.363 32.1054 118.168 32.8419L117.685 42.2931L113.968 45.2638C114.185 42.2456 114.394 39.2978 114.597 36.4204C114.816 33.5272 115.003 30.689 115.16 27.9059C115.317 25.1071 115.435 22.3479 115.515 19.6281C115.61 16.8925 115.642 14.1654 115.612 11.4468C115.602 10.4781 115.569 9.58782 115.513 8.77588C115.473 7.96377 115.41 7.25348 115.325 6.645C115.256 6.02072 115.164 5.50607 115.051 5.10104C114.937 4.69602 114.801 4.41624 114.643 4.26172C114.407 4.10805 114.133 4.03293 113.82 4.03636C113.554 4.03927 113.219 4.12108 112.815 4.28178C112.426 4.42668 111.96 4.73649 111.419 5.21121C111.744 4.92638 112.146 4.54695 112.625 4.07291C113.104 3.59887 113.607 3.1402 114.133 2.6969C114.66 2.23797 115.187 1.84935 115.715 1.53104C116.242 1.19711 116.717 1.02783 117.139 1.0232C117.592 1.01823 118 1.19345 118.363 1.54886C118.727 1.90427 118.952 2.50339 119.039 3.34623Z"
                    fill="#FC8501" />
                <path
                    d="M150.565 37.6196C150.257 38.0292 149.91 38.4862 149.525 38.9904C149.155 39.4789 148.755 39.9833 148.323 40.5037C147.891 41.0241 147.436 41.5291 146.957 42.0188C146.477 42.4928 145.974 42.9203 145.447 43.3011C144.936 43.6661 144.407 43.9531 143.863 44.1623C143.318 44.3714 142.772 44.4633 142.225 44.438C141.756 44.3963 141.371 44.1896 141.07 43.8179C140.769 43.4305 140.529 42.9409 140.35 42.3491C140.172 41.7417 140.055 41.0476 139.999 40.2669C139.944 39.4862 139.927 38.6739 139.949 37.8298C139.96 37.4078 139.991 36.6652 140.042 35.6021C140.093 34.5234 140.149 33.2492 140.211 31.7797C140.289 30.31 140.365 28.6997 140.439 26.9488C140.529 25.1977 140.612 23.4232 140.686 21.6254C140.76 19.8276 140.834 18.0689 140.909 16.3492C140.984 14.6139 141.045 13.0429 141.092 11.636C141.154 10.229 141.204 9.04088 141.24 8.07167C141.276 7.08684 141.292 6.43818 141.289 6.1257C141.28 5.282 141.202 4.62656 141.056 4.15939C140.926 3.69203 140.596 3.46127 140.064 3.4671C139.549 3.47276 138.794 3.71544 137.799 4.19513C138.48 3.59387 139.068 3.07958 139.563 2.65224C140.059 2.22491 140.469 1.87663 140.794 1.60742C141.181 1.30628 141.499 1.05278 141.747 0.846924C142.211 0.451179 142.725 0.250221 143.287 0.244049C143.771 0.238734 144.187 0.413867 144.535 0.769449C144.898 1.12486 145.053 1.6857 144.999 2.45196C144.987 2.74899 144.955 3.39 144.903 4.37501C144.867 5.34421 144.825 6.54786 144.778 7.98596C144.731 9.40844 144.671 11.003 144.596 12.7695C144.538 14.5202 144.479 16.3335 144.422 18.2092C144.364 20.0694 144.299 21.9296 144.225 23.7899C144.167 25.6344 144.116 27.3538 144.071 28.9481C144.026 30.5425 143.987 31.957 143.953 33.1918C143.936 34.4265 143.922 35.3642 143.914 36.0049C143.908 36.8801 143.963 37.6295 144.079 38.2533C144.195 38.877 144.349 39.3832 144.541 39.7717C144.733 40.1603 144.963 40.4468 145.23 40.6314C145.498 40.8004 145.78 40.8832 146.077 40.8799C146.436 40.876 146.794 40.7627 147.151 40.54C147.508 40.3173 147.849 40.0323 148.173 39.685C148.498 39.3377 148.806 38.9436 149.098 38.5029C149.39 38.0622 149.659 37.6217 149.904 37.1815C150.149 36.7413 150.355 36.3249 150.523 35.9324C150.706 35.5398 150.851 35.2178 150.958 34.9667L150.565 37.6196Z"
                    fill="#FC8501" />
                <path
                    d="M165.931 36.7712C165.113 37.7178 164.356 38.5542 163.661 39.2807C162.981 39.9913 162.378 40.5917 161.853 41.0819C161.234 41.6512 160.677 42.1417 160.181 42.5534C158.818 43.6622 157.629 44.2221 156.613 44.2333C156.035 44.2396 155.534 44.0889 155.108 43.781C154.699 43.4886 154.343 43.1019 154.041 42.6208C153.739 42.1397 153.491 41.5955 153.296 40.9882C153.102 40.381 152.947 39.7732 152.831 39.1651C152.73 38.5412 152.654 37.9482 152.601 37.3863C152.563 36.8242 152.542 36.3478 152.538 35.9572C152.526 34.9104 152.631 33.7764 152.852 32.5551C153.089 31.3337 153.427 30.119 153.867 28.9109C154.322 27.6871 154.88 26.5169 155.539 25.4002C156.199 24.2679 156.954 23.2674 157.804 22.3986C158.669 21.5141 159.614 20.8083 160.64 20.2814C161.681 19.7543 162.803 19.4842 164.006 19.471C164.334 19.4674 164.608 19.5269 164.829 19.6495C165.048 19.7564 165.23 19.9107 165.373 20.1123C165.516 20.3139 165.612 20.5394 165.661 20.7888C165.727 21.0381 165.761 21.2956 165.764 21.5612C165.771 22.2487 165.622 22.9378 165.318 23.6287C165.013 24.3196 164.598 25.0039 164.074 25.6816C163.566 26.3434 162.979 26.9983 162.315 27.6463C161.65 28.2786 160.953 28.8879 160.225 29.474C159.513 30.0444 158.8 30.5835 158.086 31.0913C157.373 31.5992 156.722 32.0595 156.133 32.4722L156.138 32.9878C156.143 33.3784 156.164 33.8548 156.201 34.4169C156.254 34.9632 156.33 35.5406 156.431 36.1489C156.547 36.7414 156.694 37.3335 156.872 37.9254C157.051 38.5172 157.275 39.046 157.546 39.5118C157.817 39.9776 158.133 40.357 158.496 40.6499C158.874 40.927 159.305 41.0629 159.79 41.0576C160.008 41.0552 160.235 41.0215 160.468 40.9564C160.702 40.8757 160.935 40.7482 161.167 40.5737C161.57 40.2412 162.026 39.783 162.535 39.1993C162.967 38.6945 163.468 38.0405 164.037 37.2373C164.606 36.4342 165.228 35.4195 165.902 34.1933L165.931 36.7712ZM161.42 22.9918C161.23 22.7751 160.986 22.6371 160.689 22.5779C160.391 22.5187 160.071 22.5378 159.728 22.6353C159.401 22.7327 159.075 22.9159 158.75 23.1851C158.44 23.4542 158.178 23.8086 157.964 24.2485C157.659 24.8769 157.325 25.7791 156.963 26.955C156.601 28.1153 156.35 29.454 156.21 30.9713C156.707 30.6689 157.219 30.3196 157.745 29.9231C158.272 29.5267 158.776 29.1071 159.255 28.6643C159.75 28.2213 160.191 27.7634 160.576 27.2903C160.977 26.8015 161.284 26.3138 161.498 25.827C161.727 25.3245 161.846 24.8388 161.857 24.3699C161.867 23.8854 161.721 23.426 161.42 22.9918Z"
                    fill="#FC8501" />
            </svg>