<?xml version="1.0" encoding="UTF-8"?>
<svg width="135px" height="22px" viewBox="0 0 135 22" version="1.1" xmlns="http://www.w3.org/2000/svg" xmlns:xlink="http://www.w3.org/1999/xlink">
    <!-- Generator: Sketch 55.2 (78181) - https://sketchapp.com -->
    <title>pb_logo</title>
    <desc>Created with Sketch.</desc>
    <g id="Page-1" stroke="none" stroke-width="1" fill="none" fill-rule="evenodd">
        <g id="Offer-Form" transform="translate(-46.000000, -57.000000)">
            <g id="Group-6" transform="translate(0.000000, 36.000000)">
                <g id="Navigation-/-Primary">
                    <g id="pb_logo" transform="translate(46.000000, 21.000000)">
                        <path d="M28.8356477,4.49916123 L28.8356477,6.09324324 L28.8834576,6.09324324 C29.1914594,5.44950778 29.7264649,4.94228318 30.3856943,4.66901212 C31.0991143,4.36756357 31.8671292,4.21678764 32.6415657,4.22614166 C33.4632318,4.20810981 34.2779359,4.38035169 35.0219944,4.72940354 C35.6782219,5.0482133 36.2540726,5.51095818 36.7066636,6.08317801 C37.1639192,6.67091754 37.5077982,7.33862313 37.7207363,8.05219012 C37.9521472,8.81915148 38.0674969,9.61642167 38.0629543,10.417521 C38.0671023,11.2186092 37.9556562,12.016106 37.7320596,12.7853681 C37.52849,13.4943038 37.1863869,14.1558456 36.7255359,14.7317335 C36.2704371,15.290488 35.6938214,15.7380106 35.0396086,16.0402144 C34.2983673,16.372303 33.4926169,16.5356018 32.6805685,16.5183131 C32.3564933,16.515602 32.0332377,16.4852968 31.7143057,16.427726 C31.351882,16.3655793 30.996867,16.266074 30.6549394,16.1308015 C30.3001837,15.9919577 29.966501,15.8043671 29.6635135,15.573439 C29.3478731,15.3328107 29.081355,15.0338322 28.878425,14.6927307 L28.8306151,14.6927307 L28.8306151,20.7595527 L26.9018639,20.7595527 L26.9018639,4.49916123 L28.8356477,4.49916123 Z M35.8033085,8.67120224 C35.6675543,8.16885473 35.4434624,7.69468317 35.1415191,7.27087605 C34.8444003,6.85911676 34.4542782,6.52330999 34.0028891,6.29077353 C33.4978883,6.03748074 32.9383749,5.91218432 32.3735788,5.92590867 C31.2676094,5.88053502 30.216641,6.40958749 29.594315,7.3249767 C29.2987241,7.75648148 29.0854482,8.23891161 28.9652377,8.74794967 C28.7014445,9.82924864 28.7053313,10.9585666 28.976561,12.0380242 C29.0998972,12.5489155 29.3198335,13.0314943 29.6245107,13.459739 C29.9263635,13.874841 30.3204399,14.2142204 30.7757223,14.451165 C31.3052416,14.7151485 31.8915851,14.8447749 32.4830382,14.8286114 C33.1540541,14.8286114 33.7126747,14.6994408 34.1589003,14.4410997 C34.5972825,14.193063 34.968656,13.8419855 35.2409133,13.4182199 C35.5228055,12.9708586 35.7234207,12.4772004 35.8335042,11.9600186 C35.9548975,11.4066856 36.0160643,10.841842 36.0159533,10.2753495 C36.0172068,9.73352525 35.9456914,9.19398539 35.8033085,8.67120224 L35.8033085,8.67120224 Z" id="Shape" fill="#FFFFFF" fill-rule="nonzero"></path>
                        <path d="M48.7157502,16.2641659 L48.722041,14.3983225 L48.6691985,14.3983225 C48.3119981,15.0740888 47.7660279,15.6314243 47.0977633,16.0024697 C46.4013638,16.3592501 45.6266273,16.5357395 44.8444082,16.5157968 C44.0706431,16.5157968 43.4239515,16.4138863 42.9081081,16.2088071 C42.4242222,16.0243022 41.9942666,15.7215165 41.6575023,15.3280988 C41.3307748,14.9351059 41.1006736,14.4710253 40.9856477,13.9730662 C40.8505747,13.4022138 40.7850938,12.8171107 40.7906337,12.2305219 L40.7906337,4.48783784 L42.7256757,4.48783784 L42.7256757,12.4557316 C42.7256757,13.1854613 42.9387232,13.7621156 43.3648183,14.1856943 C43.7909133,14.6092731 44.3759553,14.8219012 45.1199441,14.8235788 C45.6459223,14.8360404 46.1690835,14.7432145 46.6586673,14.5505592 C47.0751101,14.3799664 47.4460253,14.1145962 47.7419385,13.7755359 C48.0354848,13.4326446 48.2563495,13.0337184 48.3911463,12.6029357 C48.5398028,12.1274518 48.6128275,11.6315634 48.6075489,11.133411 L48.6075489,4.48783784 L50.5425909,4.48783784 L50.5425909,16.2641659 L48.7157502,16.2641659 Z" id="Path" fill="#FFFFFF"></path>
                        <path d="M55.6796365,4.49916123 L55.6796365,6.98024231 L55.7236719,6.98024231 C56.1908667,6.02320596 56.7666822,5.31738117 57.4511184,4.86276794 C58.1355545,4.40815471 59.0015843,4.19594595 60.0492078,4.22614166 L60.0492078,6.26812675 C59.3746535,6.25201334 58.7029049,6.36034612 58.0676142,6.58769804 C57.5516214,6.77702159 57.0946555,7.09902419 56.7427773,7.52124884 C56.3952129,7.96047245 56.1463263,8.46940274 56.0130475,9.01342032 C55.8530361,9.67223394 55.776527,10.3485581 55.7853215,11.0264678 L55.7853215,16.2679404 L53.8490214,16.2679404 L53.8490214,4.49916123 L55.6796365,4.49916123 Z" id="Path" fill="#FFFFFF"></path>
                        <path d="M70.305685,15.5130475 C69.4241379,16.1840634 68.3144455,16.5195713 66.9766076,16.5195713 C66.1369531,16.5387151 65.3024429,16.3836367 64.5257223,16.0641193 C63.8559721,15.7747252 63.2599686,15.338258 62.7819199,14.7870923 C62.2984862,14.2153646 61.9378846,13.5502646 61.7225536,12.833178 C61.4787188,12.027871 61.3449797,11.1932715 61.3249767,10.3520969 C61.3142968,9.51484596 61.4527571,8.68237985 61.733877,7.89366263 C61.9888183,7.18052461 62.3793099,6.52343924 62.8838304,5.95862069 C63.3729708,5.4149437 63.9703728,4.97953445 64.637698,4.68033551 C65.3379147,4.37223335 66.0959042,4.21737529 66.8608574,4.22614166 C67.9076421,4.22614166 68.7766076,4.44212488 69.467754,4.87409133 C70.1416419,5.28868797 70.7108217,5.8531318 71.1310345,6.52353215 C71.5493361,7.19276478 71.8426311,7.93239678 71.9966449,8.70643057 C72.1523217,9.44648374 72.2169669,10.2027896 72.1891426,10.9585275 L63.3669618,10.9585275 C63.3491097,11.4545456 63.4106982,11.950227 63.5493942,12.426794 C63.6804725,12.8790261 63.906519,13.2980914 64.2124418,13.6560112 C64.5315487,14.0239717 64.9292826,14.3154998 65.3762349,14.5090401 C65.9023022,14.7333182 66.4703145,14.8422874 67.0420317,14.8286114 C67.8631873,14.8286114 68.5367195,14.6382106 69.0626281,14.2574091 C69.5885368,13.8766076 69.9345294,13.2982759 70.1006058,12.5224138 L72.0142591,12.5224138 C71.7575955,13.8459925 71.1880708,14.8428705 70.305685,15.5130475 Z M69.8389096,7.95657036 C69.6738089,7.56081144 69.4332171,7.20099215 69.1305685,6.8972041 C68.4984819,6.26286569 67.6354427,5.91310767 66.7400746,5.92842498 C66.2741374,5.92189024 65.811768,6.01051105 65.3812675,6.188863 C64.9904437,6.35658823 64.6374252,6.60134776 64.3432898,6.90852749 C64.0528309,7.2165091 63.8220376,7.57571052 63.6626281,7.96789376 C63.4940118,8.37826351 63.3937107,8.81346838 63.3657036,9.25624418 L70.1458993,9.25624418 C70.1177249,8.80878796 70.0139254,8.36934188 69.8389096,7.95657036 L69.8389096,7.95657036 Z" id="Shape" fill="#FFFFFF" fill-rule="nonzero"></path>
                        <path d="M80.260205,0 L80.260205,6.0945014 L80.3080149,6.0945014 C80.6149357,5.44997989 81.1502949,4.94241996 81.8102516,4.67027027 C82.5229547,4.36779166 83.2906897,4.21655815 84.0648649,4.22614166 C84.886155,4.20780213 85.70052,4.38006336 86.4440354,4.72940354 C87.1008011,5.04848231 87.6774172,5.51115122 88.1312209,6.08317801 C88.5863204,6.67117108 88.9276735,7.33894291 89.1377446,8.05219012 C89.3681227,8.81935042 89.483035,9.6165277 89.4787046,10.417521 C89.4840949,11.2186919 89.3726238,12.0163671 89.1478099,12.7853681 C88.9458138,13.4949285 88.6035564,14.1567687 88.1412861,14.7317335 C87.6874886,15.2912992 87.111075,15.738999 86.456617,16.0402144 C85.7161852,16.3720579 84.9113076,16.5353539 84.1000932,16.5183131 C83.7747611,16.5157309 83.4502409,16.4854255 83.1300559,16.427726 C82.7682729,16.3645531 82.4137785,16.2650755 82.0719478,16.1308015 C81.7170649,15.992226 81.3833463,15.8046151 81.0805219,15.573439 C80.7651634,15.3328742 80.4990475,15.0338676 80.2966915,14.6927307 L80.2488816,14.6927307 L80.2488816,16.2629077 L78.3251631,16.2629077 L78.3251631,0 L80.260205,0 Z M87.2253495,8.67120224 C87.090473,8.16807486 86.8653892,7.69360847 86.5610438,7.27087605 C86.2656022,6.8599685 85.877729,6.52424271 85.4287046,6.29077353 C84.9216793,6.03709463 84.3598291,5.9126232 83.7931034,5.92842498 C82.6872921,5.88378265 81.6366589,6.41266636 81.0138397,7.32749301 C80.7182488,7.75899779 80.5049729,8.24142792 80.3847623,8.75046598 C80.1213648,9.83175862 80.1248191,10.9608797 80.3948276,12.0405405 C80.5189289,12.5518398 80.740187,13.034507 81.0465517,13.4622554 C81.3471437,13.8775607 81.7404616,14.2170289 82.195247,14.4536813 C82.7251791,14.7177687 83.3119548,14.8473951 83.9038211,14.8311277 C84.5748369,14.8311277 85.1326188,14.7019571 85.5771668,14.443616 C86.0161596,14.1959491 86.3880234,13.8448163 86.660438,13.4207363 C86.9423302,12.9733749 87.1429454,12.4797167 87.2530289,11.9625349 C87.3773397,11.4087156 87.4406247,10.8429478 87.4417686,10.2753495 C87.4430304,9.73327236 87.3702226,9.19356324 87.2253495,8.67120224 Z" id="Shape" fill="#FFFFFF" fill-rule="nonzero"></path>
                        <path d="M101.273905,16.5157968 C100.770643,16.5157968 100.37055,16.3757223 100.073625,16.0955732 C99.7767008,15.815424 99.628658,15.3541007 99.6294967,14.711603 C99.1362663,15.3218172 98.4971338,15.797813 97.7712022,16.0955732 C97.040632,16.379703 96.2626939,16.5223107 95.4788444,16.5157968 C94.9706407,16.5190047 94.4638465,16.4619904 93.9690587,16.3459459 C93.5206941,16.242331 93.0981582,16.0484012 92.72726,15.7760019 C92.366801,15.5077871 92.0770522,15.1558568 91.8830382,14.7506058 C91.6659105,14.2776662 91.5608547,13.7609984 91.5760485,13.2408201 C91.5760485,12.5698043 91.6897018,12.0246039 91.9170084,11.605219 C92.1333394,11.1932873 92.4436805,10.8381192 92.8228798,10.5684995 C93.2105409,10.2950526 93.6425878,10.0907349 94.0999068,9.96458527 C94.5841254,9.82628398 95.0750096,9.71248619 95.5706897,9.62362535 C96.1028891,9.5166822 96.606151,9.4361603 97.0804753,9.3833178 C97.5074939,9.33992641 97.9306078,9.26422013 98.3461789,9.15684995 C98.6643305,9.08049625 98.9608314,8.932461 99.2130475,8.72404473 C99.4244175,8.53532153 99.5301025,8.25726934 99.5301025,7.89240447 C99.5468604,7.53506858 99.4641056,7.180094 99.2910531,6.86700839 C99.1410012,6.61921743 98.9283827,6.41527729 98.6745573,6.27567568 C98.4109682,6.13568281 98.1247603,6.04326153 97.8290774,6.0026561 C97.5228712,5.95773796 97.2138166,5.93503191 96.9043336,5.93471575 C96.083178,5.93471575 95.3987418,6.09114632 94.8510252,6.40400746 C94.3033085,6.71686859 94.0076421,7.3082013 93.9640261,8.17800559 L92.0289842,8.17800559 C92.0376876,7.53508517 92.1939412,6.90275324 92.4856943,6.32977633 C92.7475644,5.84118772 93.1229584,5.42264504 93.5802889,5.10936626 C94.0588275,4.78852753 94.593044,4.55982141 95.1554986,4.43499534 C95.7698914,4.29685956 96.3979084,4.22848674 97.0276328,4.23109804 C97.5585234,4.23039462 98.0887673,4.26823915 98.6141659,4.3444082 C99.1136891,4.41158158 99.5967633,4.5693375 100.039655,4.80992544 C100.464551,5.04285214 100.819443,5.38514693 101.067568,5.80135135 C101.326747,6.22576887 101.455918,6.77893756 101.455079,7.46085741 L101.455079,13.5138397 C101.444706,13.8492061 101.471713,14.1846845 101.535601,14.5140727 C101.588444,14.727959 101.767102,14.833644 102.071575,14.833644 C102.274281,14.8276667 102.474741,14.7894433 102.665424,14.7204101 L102.665424,16.2301957 C102.329916,16.4214352 101.866076,16.5166356 101.273905,16.5157968 Z M98.5613234,10.5798229 C98.1637465,10.661603 97.7498136,10.7320596 97.3157502,10.783644 C96.8816869,10.8352283 96.4350419,10.8993942 96.0009786,10.9660764 C95.5920352,11.0252514 95.1924243,11.1368888 94.8120224,11.2982293 C94.4754991,11.4400145 94.1806307,11.665171 93.955219,11.9524697 C93.7337838,12.2342964 93.6230662,12.6167754 93.6230662,13.1036813 C93.6142531,13.3859642 93.6816161,13.6654119 93.8180801,13.9126747 C93.9425282,14.1272084 94.1147374,14.3101806 94.321342,14.4473905 C94.544111,14.5915557 94.7921299,14.6923 95.0523299,14.744315 C95.3339202,14.8047487 95.6211311,14.8351146 95.9091333,14.8349021 C96.4689917,14.8477738 97.0265508,14.75911 97.5547996,14.573206 C97.9668816,14.4259043 98.3472787,14.2017646 98.6758155,13.9126747 C98.9471293,13.6715844 99.1648635,13.3762716 99.3149581,13.0458062 C99.4445813,12.7699005 99.5148746,12.469868 99.5212954,12.1650979 L99.5212954,10.1809879 C99.2333914,10.3808391 98.9060847,10.5168236 98.5613234,10.5798229 Z" id="Shape" fill="#FFFFFF" fill-rule="nonzero"></path>
                        <path d="M106.67013,4.49916123 L106.67013,6.98024231 L106.712908,6.98024231 C107.183458,6.02320596 107.759692,5.31738117 108.441612,4.86276794 C109.126048,4.40605778 109.990401,4.19468779 111.04096,4.22614166 L111.04096,6.26812675 C110.365593,6.25213442 109.693041,6.36045916 109.05685,6.58769804 C108.542183,6.77819725 108.086315,7.10003785 107.734529,7.52124884 C107.387189,7.96027277 107.139093,8.46934109 107.007316,9.01342032 C106.846232,9.67206449 106.76929,10.3484719 106.778332,11.0264678 L106.778332,16.2679404 L104.84329,16.2679404 L104.84329,4.49916123 L106.67013,4.49916123 Z" id="Path" fill="#FFFFFF"></path>
                        <path d="M114.713514,4.49916123 L114.713514,6.98024231 L114.757549,6.98024231 C115.225582,6.02320596 115.801398,5.31738117 116.484995,4.86276794 C117.168593,4.40815471 118.034203,4.19594595 119.081827,4.22614166 L119.081827,6.26812675 C118.407294,6.25232918 117.735603,6.36065273 117.100233,6.58769804 C116.585566,6.77819725 116.129698,7.10003785 115.777912,7.52124884 C115.430191,7.96020275 115.181669,8.4692635 115.049441,9.01342032 C114.889429,9.67223394 114.81292,10.3485581 114.821715,11.0264678 L114.821715,16.2679404 L112.886673,16.2679404 L112.886673,4.49916123 L114.713514,4.49916123 Z" id="Path" fill="#FFFFFF"></path>
                        <path d="M129.338304,15.5130475 C128.457596,16.1823858 127.349161,16.5195713 126.009226,16.5195713 C125.169551,16.538971 124.334989,16.3838829 123.558341,16.0641193 C122.888485,15.7766492 122.29234,15.3413682 121.814539,14.7908667 C121.330436,14.2185662 120.970545,13.5519098 120.757689,12.833178 C120.514209,12.0277096 120.379649,11.193272 120.357596,10.3520969 C120.348139,9.51493963 120.486564,8.68268734 120.766496,7.89366263 C121.021198,7.17955615 121.411217,6.52126573 121.915191,5.95484623 C122.406897,5.4116796 123.006917,4.97752194 123.676608,4.68033551 C124.376014,4.37247341 125.133133,4.21761807 125.897251,4.22614166 C126.946552,4.22614166 127.816356,4.44212488 128.506664,4.87409133 C129.180552,5.28868797 129.749731,5.8531318 130.169944,6.52353215 C130.588246,7.19276478 130.881541,7.93239678 131.035555,8.70643057 C131.189145,9.44676856 131.252932,10.2029219 131.225536,10.9585275 L122.402097,10.9585275 C122.383944,11.4543889 122.444673,11.9499863 122.582013,12.426794 C122.714122,12.8786037 122.940057,13.2974622 123.245061,13.6560112 C123.564662,14.023435 123.962264,14.3148671 124.408854,14.5090401 C124.934955,14.7332059 125.502943,14.8421703 126.074651,14.8286114 C126.897484,14.8286114 127.571016,14.6382106 128.095247,14.2574091 C128.619478,13.8766076 128.965471,13.2982759 129.133225,12.5224138 L131.048136,12.5224138 C130.789795,13.8459925 130.219851,14.8428705 129.338304,15.5130475 Z M128.871528,7.95657036 C128.705976,7.5610541 128.465439,7.20131725 128.163187,6.8972041 C127.530691,6.26348265 126.667926,5.9138356 125.772693,5.92842498 C125.307163,5.92188492 124.845204,6.01050922 124.415144,6.188863 C124.02377,6.35625892 123.670278,6.60105043 123.375909,6.90852749 C123.084031,7.21614117 122.851936,7.5753764 122.691473,7.96789376 C122.522099,8.37795895 122.422178,8.81336129 122.395806,9.25624418 L129.173486,9.25624418 C129.147942,8.80906453 129.046249,8.36952682 128.872787,7.95657036 L128.871528,7.95657036 Z" id="Shape" fill="#FFFFFF" fill-rule="nonzero"></path>
                        <path d="M20.8966927,11.3875582 C20.8987273,15.5889021 18.3693982,19.377663 14.488398,20.9867409 C10.6073978,22.5958189 6.13924119,21.7082431 3.16790216,18.737984 C0.19656313,15.767725 -0.692636888,11.2998913 0.915030111,7.41830641 C2.52269711,3.5367215 6.31053823,1.00601531 10.5118826,1.00652369 C16.2457805,1.00652369 20.8946075,5.65366071 20.8966927,11.3875582 Z" id="Path" fill="#FFFFFF"></path>
                        <path d="M10.5118826,20.0499534 C5.72777383,20.0499534 1.84948742,16.171667 1.84948742,11.3875582 C1.84948742,6.60344951 5.72777383,2.72516309 10.5118826,2.72516309 C15.2959913,2.72516309 19.1742777,6.60344951 19.1742777,11.3875582 C19.1680396,16.1690807 15.293405,20.0437153 10.5118826,20.0499534 Z M10.5118826,3.43476225 C7.29516245,3.43425345 4.39489836,5.37156729 3.16356023,8.34328313 C1.93222209,11.314999 2.61231896,14.7358446 4.88670367,17.0105892 C7.16108837,19.2853338 10.5818264,19.9659718 13.553737,18.7351039 C16.5256476,17.504236 18.4634203,14.6042784 18.4634203,11.3875582 C18.4578764,6.99813982 14.9013001,3.44100072 10.5118826,3.43476225 Z" id="Shape" fill="#CC0000" fill-rule="nonzero"></path>
                        <path d="M9.04487418,6.70722274 L9.04487418,7.67474371 L9.0750699,7.67474371 C9.26293244,7.28264841 9.58917158,6.97388636 9.99100652,6.80787512 C10.4250014,6.62597004 10.8918692,6.5355947 11.3623952,6.54240447 C11.8630072,6.53010605 12.3596258,6.63433995 12.8130475,6.84687791 C13.212745,7.04278031 13.5635352,7.32564788 13.8397018,7.67474371 C14.1174446,8.03340575 14.3264583,8.44034268 14.4561976,8.8750233 C14.5970824,9.34255886 14.667059,9.82857834 14.6637931,10.3168686 C14.6688514,10.8039717 14.6031616,11.2892289 14.4687791,11.7574557 C14.345802,12.1893829 14.1384011,12.5926388 13.8585741,12.9438956 C13.5816486,13.2840642 13.2310148,13.5568272 12.833178,13.7415657 C12.3821778,13.943964 11.8918523,14.0436621 11.3976235,14.0334576 C11.2000966,14.0313979 11.0031074,14.0124566 10.8088071,13.9768406 C10.5879035,13.9398712 10.3715474,13.8795614 10.1633737,13.7969245 C9.94790296,13.7117746 9.74512825,13.5974757 9.56071761,13.4572227 C9.36830266,13.3116783 9.20557928,13.1305898 9.08136067,12.9237651 L9.05116496,12.9237651 L9.05116496,16.6076421 L7.86849953,16.6076421 L7.86849953,6.70722274 L9.04487418,6.70722274 Z M13.2861137,9.2499534 C13.2034151,8.94364885 13.0671057,8.65441725 12.8835042,8.39566636 C12.7021048,8.14584757 12.4646731,7.94202695 12.190261,7.80055918 C11.8824594,7.64666263 11.5416027,7.57062869 11.1975769,7.57912395 C10.5242516,7.55032396 9.88399839,7.87211667 9.50535881,8.42963653 C9.32706236,8.69324764 9.19909194,8.9875796 9.1279124,9.29776328 C8.96605536,9.95646561 8.96605536,10.6445596 9.1279124,11.3032619 C9.2034409,11.6144905 9.33797885,11.9083385 9.52423113,12.1688723 C9.70721737,12.4226893 9.94726038,12.6299796 10.2250233,12.7740447 C10.5475013,12.9341981 10.9043351,13.0128225 11.2642591,13.0030289 C11.6188702,13.0153778 11.9704453,12.9337776 12.2833644,12.7664958 C12.5514244,12.6140936 12.7778442,12.3980442 12.9426375,12.1374185 C13.1157094,11.8651414 13.2380466,11.5637743 13.3037279,11.2479031 C13.3782143,10.9112134 13.4153445,10.5673364 13.4144614,10.222507 C13.414754,9.89408102 13.3716022,9.56705816 13.2861137,9.2499534 L13.2861137,9.2499534 Z" id="Shape" fill="#CC0000" fill-rule="nonzero"></path>
                        <path d="M133.660065,4.52935694 C134.189305,4.52783617 134.667137,4.84587606 134.870016,5.33468732 C135.072896,5.82349859 134.960706,6.38642514 134.585933,6.76011186 C134.21116,7.13379858 133.64791,7.24435376 133.15969,7.04005613 C132.67147,6.83575851 132.354818,6.35700529 132.357875,5.8277726 C132.353763,5.48151018 132.489761,5.14828195 132.734978,4.90377583 C132.980195,4.65926971 133.313816,4.52424008 133.660065,4.52935694 Z M133.660065,4.73191985 C133.069256,4.74905744 132.603513,5.24067476 132.618313,5.83154706 C132.594965,6.21984012 132.788858,6.58905777 133.121776,6.79025952 C133.454694,6.99146127 133.871727,6.99146127 134.204645,6.79025952 C134.537563,6.58905777 134.731456,6.21984012 134.708108,5.83154706 C134.717593,5.54648192 134.612944,5.26941482 134.417374,5.06179875 C134.221804,4.85418267 133.951479,4.73318007 133.666356,4.72562908 L133.660065,4.73191985 Z M133.417241,6.59021435 L133.185741,6.59021435 L133.185741,5.1332712 C133.321756,5.11101089 133.459333,5.09965137 133.597158,5.09930103 C133.755418,5.08814525 133.913239,5.1263916 134.048835,5.20876048 C134.13759,5.28226445 134.184614,5.39465076 134.174651,5.50945946 C134.174636,5.67902704 134.057027,5.82590802 133.891566,5.86300093 L133.891566,5.87432432 C134.017381,5.89697111 134.105452,6.01272134 134.13439,6.2278658 C134.146436,6.35153191 134.177854,6.4725345 134.227493,6.58643989 L133.984669,6.58643989 C133.928418,6.46787662 133.894714,6.33988397 133.885275,6.20899348 C133.880873,6.13276979 133.844463,6.06195624 133.785031,6.0140269 C133.725598,5.96609756 133.648679,5.94551657 133.573253,5.95736253 L133.410951,5.95736253 L133.417241,6.59021435 Z M133.417241,5.78499534 L133.584576,5.78499534 C133.775815,5.78499534 133.938117,5.71579683 133.938117,5.5333644 C133.938117,5.40754893 133.845014,5.28173346 133.584576,5.28173346 C133.528608,5.28178185 133.472706,5.28556472 133.417241,5.29305685 L133.417241,5.78499534 Z" id="Shape" fill="#FFFFFF" fill-rule="nonzero"></path>
                    </g>
                </g>
            </g>
        </g>
    </g>
</svg>